<svg width="320" height="64" viewBox="0 0 320 64" fill="none" xmlns="http://www.w3.org/2000/svg">
<g clip-path="url(#clip0)">
<path d="M0 0H320V64H0V0Z" fill="#F9413F"/>
<path d="M210.797 0.149396C210.953 -0.61677 211.479 -3.7444 212.306 -3.97017C215.358 -4.80328 251.293 -17.6638 252.869 -12.4997C253.872 -11.8405 256.015 -10.0266 256.561 -8.04386C257.242 -5.56549 258.209 4.9522 258.016 16.2335C257.823 27.5147 256.518 34.1009 254.568 35.3444C252.617 36.5878 239.3 40.6335 229.267 42.1765C221.241 43.4109 215.27 43.4646 213.287 43.3372C212.188 42.3738 209.915 39.9804 209.616 38.1144C207.611 27.1901 208.546 11.1915 210.797 0.149396Z" fill="#FECF43"/>
<path d="M209.616 38.1144C207.611 27.1901 208.546 11.1915 210.797 0.149396C210.953 -0.61677 211.479 -3.7444 212.306 -3.97017C215.358 -4.80328 251.293 -17.6638 252.869 -12.4997M209.616 38.1144C211.803 45.7047 247.068 34.9607 251.48 34.2824C252.13 34.1824 252.332 31.2876 252.413 30.8219C254.805 16.9576 257.015 1.08751 252.869 -12.4997M209.616 38.1144C209.915 39.9804 212.188 42.3738 213.287 43.3372C215.27 43.4646 221.241 43.4109 229.267 42.1765C239.3 40.6335 252.617 36.5878 254.568 35.3444C256.518 34.1009 257.823 27.5147 258.016 16.2335C258.209 4.9522 257.242 -5.56549 256.561 -8.04386C256.015 -10.0266 253.872 -11.8405 252.869 -12.4997" stroke="black" stroke-width="1.2" stroke-linecap="round" stroke-linejoin="round"/>
<path d="M220.467 11.6321C219.984 10.6818 215.595 1.87618 215.984 1.51731C217.38 0.22936 221.517 0.43722 222.306 0.942C225.423 2.934 227.492 4.87274 229.939 7.65478C230.109 7.71976 224.537 30.439 221.998 32.5151C221.231 33.1419 217.149 34.3318 217.083 32.4827C216.88 26.7652 220.665 17.1965 220.467 11.6321Z" fill="#060139"/>
<path d="M230.248 7.69644C229.764 6.74613 226.02 0.235815 226.409 -0.123054C228.156 -0.918252 230.943 -0.642653 231.733 -0.137873C232.523 0.366907 239.402 3.73331 240.192 4.84391C240.362 4.90889 234.756 28.0783 232.217 30.1544C231.45 30.7812 227.59 33.1359 227.525 31.2868C227.322 25.5694 230.445 13.2608 230.248 7.69644Z" fill="#060139"/>
<path d="M240.241 5.01311C239.757 4.0628 236.068 -0.915079 236.457 -1.27395C236.846 -1.63297 240.538 -2.0636 241.17 -1.81358C241.803 -1.56356 249.395 1.04999 250.185 2.16058C250.355 2.22556 244.749 25.395 242.21 27.4711C241.444 28.0978 237.583 30.4526 237.518 28.6035C237.315 22.886 240.438 10.5775 240.241 5.01311Z" fill="#060139"/>
<path d="M136.879 39.6411C137.957 40.8105 140.298 42.2929 141.878 42.3663C144.933 42.508 143.528 30.5586 147.342 32.4029C149.846 33.6135 151.145 36.9162 153.379 38.5853C154.672 39.5516 154.959 39.649 155.53 38.1589C156.497 35.6326 158.173 27.7724 160.954 26.4733C162.958 25.5366 165.367 36.2459 168.37 36.7773C171.273 37.291 175.719 24.2952 176.773 22.4279C176.891 22.2192 178.109 19.6999 178.518 20.8111C179.264 22.8381 181.652 30.8819 184.572 28.8874C189.184 20.4407 190.957 20.5865 194.058 19.0566M194.058 19.0566L192.628 21.9719M194.058 19.0566L191.152 18.2225" stroke="white" stroke-width="1.2" stroke-linecap="round" stroke-linejoin="round"/>
<path d="M109.468 30.2524C109.098 29.5633 107.697 26.7183 106.84 26.7395C103.677 26.8174 65.5628 24.814 65.5359 30.2131C64.7639 31.1326 63.2318 33.4854 63.2788 35.5411C63.4446 42.7926 65.8715 58.1552 76.258 74.4413L80.2071 74.6232C80.2375 74.6299 80.2673 74.6314 80.2963 74.6274C84.7166 74.0108 121.582 74.1791 121.498 66.2805C120.283 55.2403 114.794 40.1835 109.468 30.2524Z" fill="#2F313A"/>
<path d="M65.5359 30.2131C65.465 44.4185 72.1374 58.9864 78.4092 71.5803C78.6198 72.0033 79.6447 74.7182 80.2963 74.6274M65.5359 30.2131C65.5628 24.814 103.677 26.8174 106.84 26.7395C107.697 26.7183 109.098 29.5633 109.468 30.2524C114.794 40.1835 120.283 55.2403 121.498 66.2805C121.582 74.1791 84.7166 74.0108 80.2963 74.6274M65.5359 30.2131C64.7639 31.1326 63.2318 33.4854 63.2788 35.5411C63.4446 42.7926 65.8715 58.1552 76.258 74.4413L80.2963 74.6274" stroke="black" stroke-width="1.2" stroke-linecap="round" stroke-linejoin="round"/>
<path d="M93.4361 41.7192C92.7553 38.8621 91.9021 36.0099 91.8037 33.1524L88.9583 33.0996C86.9069 33.2532 83.8734 33.0188 82.3814 34.3606C80.6 35.9625 79.8854 38.347 80.8283 40.8755C81.7007 43.2147 84.7893 44.5772 87.0763 44.7816C89.1315 44.9652 91.0165 44.5264 92.8215 43.908C92.9974 43.8477 93.7252 43.721 93.7769 43.467C93.8763 42.978 93.5539 42.2136 93.4361 41.7192Z" fill="#F04F2B"/>
<path d="M95.5933 55.5109C95.4152 54.7633 95.3038 54.0071 95.1969 53.2574C94.7418 50.0649 93.5897 46.9681 93.48 43.8474C89.5763 44.1407 86.0325 44.9502 84.4731 48.1623C83.8528 49.4401 84.0546 50.7723 84.7372 52.1585C85.6657 54.0445 87.5851 55.1544 89.7076 55.4081C91.1346 55.5787 92.5571 55.7078 93.984 55.8693C94.3483 55.9105 95.2049 56.0678 95.5129 55.8567C95.6343 55.7735 95.6248 55.6428 95.5933 55.5109Z" fill="#935AE4"/>
<path d="M86.0807 62.4982C87.62 65.6279 90.6452 66.8407 93.8598 66.6C99.6591 66.1656 96.7686 59.0994 95.8581 55.2787C93.519 55.4538 90.3873 55.3552 88.3077 56.4704C85.9284 57.7463 84.6971 59.685 86.0807 62.4982Z" fill="#24CE85"/>
<path d="M106.223 52.8062C107.548 50.9509 106.797 48.1526 105.311 46.1628C102.085 41.8426 97.4794 43.1026 95.1801 45.9358C94.3065 47.0123 93.9143 48.2358 94.3401 49.7243C94.7609 51.1952 95.4295 52.7343 96.8042 53.7002C99.6657 55.7106 104.494 55.2287 106.223 52.8062Z" fill="#2CBDFB"/>
<path d="M92.1508 37.8558C91.7143 36.248 91.3116 35.1308 91.1429 33.5084C91.4229 32.8549 93.3871 32.8384 94.091 32.7042C95.3063 32.4727 96.2798 32.4511 97.5639 32.6612C99.5353 32.9837 101.105 34.0978 102.436 35.6067C103.77 37.1197 103.748 38.9527 103.008 40.448C102.601 41.2706 102.286 42.088 101.507 42.6497C100.882 43.1 100.071 43.2632 99.3046 43.4659C97.7223 43.8843 95.9061 44.4201 94.1479 44.1777C93.5001 44.0884 93.257 42.9095 93.1328 42.3883C92.7732 40.8792 92.5594 39.3606 92.1508 37.8558Z" fill="#FD7366"/>
<path d="M57 27.5C46.2476 21.8408 34.6349 17.4905 23 14" stroke="black" stroke-width="1.2" stroke-linecap="round" stroke-linejoin="round"/>
<path d="M49 41C45.3306 38.5818 40.1929 39.0245 36 38" stroke="black" stroke-width="1.2" stroke-linecap="round" stroke-linejoin="round"/>
<path d="M58.5 54.5C49.5738 58.478 40.8239 62.8087 32 67" stroke="black" stroke-width="1.2" stroke-linecap="round" stroke-linejoin="round"/>
<path d="M74 17C71.2403 14.2232 69.2127 11.2385 67 8" stroke="black" stroke-width="1.2" stroke-linecap="round" stroke-linejoin="round"/>
<path d="M98 18.5C98.8934 15.5965 98.8726 13.4808 98.5 10.5" stroke="black" stroke-width="1.2" stroke-linecap="round" stroke-linejoin="round"/>
<path d="M205 7.5C196.509 2.20924 188.581 -1.32609 179 -4" stroke="black" stroke-width="1.2" stroke-linecap="round" stroke-linejoin="round"/>
<path d="M265.5 14C273.013 11.8776 280.169 9.15606 287.5 6.5" stroke="black" stroke-width="1.2" stroke-linecap="round" stroke-linejoin="round"/>
<path d="M266.5 32.5C275.005 37.8459 283.927 42.6872 292 48.5" stroke="black" stroke-width="1.2" stroke-linecap="round" stroke-linejoin="round"/>
<path d="M245 43C246.057 46.1208 247.535 49.2447 248 52.5" stroke="black" stroke-width="1.2" stroke-linecap="round" stroke-linejoin="round"/>
<path d="M221 50C218.961 55.321 216.97 60.6541 215 66" stroke="black" stroke-width="1.2" stroke-linecap="round" stroke-linejoin="round"/>
<path d="M203 38C197.721 41.5929 192.363 45.0362 187 48.5" stroke="black" stroke-linecap="round" stroke-linejoin="round"/>
<path d="M124.5 29.5C129.103 22.3867 134.238 16.105 139.5 9.5" stroke="black" stroke-linecap="round" stroke-linejoin="round"/>
<path d="M129 53.5C137.999 55.4004 146.879 56.8039 156 58" stroke="black" stroke-linecap="round" stroke-linejoin="round"/>
<path d="M127.5 62C131.272 65.7725 134.97 69.1687 139.5 72" stroke="black" stroke-linecap="round" stroke-linejoin="round"/>
</g>
<defs>
<clipPath id="clip0">
<path d="M0 0H320V64H0V0Z" fill="white"/>
</clipPath>
</defs>
</svg>
